:SAMPLES-PER-SECOND 30
:FULLY-SPECIFIED
:DEGREES
391
root  -6.4035 34.214 -22.5735 3.26764 80.5831 -1.80225
RightUpLeg  -17.1907 -13.8745 -6.57849
RightLeg  13.2289 7.61796 1.2785
RightFoot  14.2994 -0.148109 1.68141
RightToes  -33.2708 -0.166032 -0.275042
Spine  -1.91689 -2.87578 -0.305831
Spine1  -3.4564 -6.90913 0.396418
HEad  -50.8074 -3.48493 10.9135
LeftShoulder1  -1.94126e-019 -3.10601e-018 -2.51263e-017
LeftArm  -13.739 23.3356 -73.7818
LeftForeArm  33.3186 -13.9802 -2.41424
LeftHand  -0.409688 -0.248103 8.52198
RightShoulder  -4.96962e-017 0 -2.36833e-017
RightArm  -61.8553 -39.6609 60.1606
RightForeArm  54.9241 5.32653 0.922556
RightHand  0.32889 -7.7658 -16.9113
LeftUpLeg  -7.94944 12.3268 -5.61537
LeftLeg  16.0664 26.4392 5.58189
LeftFoot  -5.87338 -0.158374 -2.92487
LeftToes  -3.14192 1.46665e-006 1.03344e-007
392
root  -6.47479 34.1763 -22.526 4.51318 78.5282 -0.515808
RightUpLeg  -17.802 -12.9709 -6.49185
RightLeg  13.3248 8.84075 1.49739
RightFoot  14.0444 -0.177503 1.93516
RightToes  -33.0557 -0.165672 -0.274691
Spine  -1.96873 -3.22058 -0.28285
Spine1  -3.53011 -7.74021 0.599696
HEad  -51.1141 -1.84521 11.1369
LeftShoulder1  -1.94126e-019 -3.10601e-018 -2.51263e-017
LeftArm  -13.0622 23.1649 -73.6264
LeftForeArm  33.491 -15.0987 -2.62558
LeftHand  -0.404971 -0.249882 8.42199
RightShoulder  -4.96962e-017 0 -2.36833e-017
RightArm  -64.6832 -41.0055 64.5164
RightForeArm  54.9091 4.28319 0.736631
RightHand  0.266054 -7.5954 -15.0627
LeftUpLeg  -8.14055 13.4887 -5.81974
LeftLeg  16.5114 27.1721 5.93528
LeftFoot  -6.00019 -0.169623 -3.07403
LeftToes  -2.91609 1.46665e-006 1.03344e-007
393
root  -6.54158 34.1416 -22.494 5.37018 76.7034 0.273865
RightUpLeg  -18.4693 -12.6363 -6.3764
RightLeg  13.4524 10.5224 1.80332
RightFoot  13.8094 -0.220066 2.30203
RightToes  -33.1968 -0.166543 -0.275238
Spine  -2.0268 -3.53769 -0.207186
Spine1  -3.64715 -8.49444 0.922274
HEad  -51.3855 -0.188179 10.9109
LeftShoulder1  -1.94126e-019 -3.10601e-018 -2.51263e-017
LeftArm  -12.0141 23.0309 -73.7327
LeftForeArm  33.0701 -16.6388 -2.90823
LeftHand  -0.377734 -0.0671511 8.10547
RightShoulder  -4.96962e-017 0 -2.36833e-017
RightArm  -65.2873 -42.5098 69.479
RightForeArm  54.8694 4.54531 0.778517
RightHand  0.142324 -6.95669 -12.2293
LeftUpLeg  -8.49793 14.8807 -6.01264
LeftLeg  17.0063 27.4794 6.23467
LeftFoot  -6.14856 -0.179362 -3.17704
LeftToes  -3.01465 1.46665e-006 1.03344e-007
394
root  -6.62279 34.1131 -22.4561 5.58112 75.1744 0.393372
RightUpLeg  -19.0649 -12.4508 -6.20601
RightLeg  13.565 12.5227 2.16636
RightFoot  13.7554 -0.278852 2.78495
RightToes  -33.721 -0.170365 -0.276978
Spine  -2.03971 -3.91055 -0.095956
Spine1  -3.70712 -9.32084 1.32573
HEad  -51.6199 1.83755 10.6584
LeftShoulder1  -1.94126e-019 -3.10601e-018 -2.51263e-017
LeftArm  -11.766 23.0773 -74.0433
LeftForeArm  33.1805 -18.582 -3.24849
LeftHand  -0.426425 -0.197569 8.94351
RightShoulder  -4.96962e-017 0 -2.36833e-017
RightArm  -64.7214 -43.4724 74.6076
RightForeArm  54.825 5.09545 0.870668
RightHand  0.000245926 -5.63939 -9.88219
LeftUpLeg  -9.01383 16.4843 -6.04874
LeftLeg  17.6935 27.3293 6.53343
LeftFoot  -6.33658 -0.188301 -3.2392
LeftToes  -3.23917 1.46665e-006 1.03344e-007
395
root  -6.724 34.0907 -22.4295 5.91895 73.891 0.577576
RightUpLeg  -19.5574 -11.0507 -6.44876
RightLeg  13.6518 14.8593 2.58528
RightFoot  13.5464 -0.341697 3.33572
RightToes  -34.5175 -0.176234 -0.282105
Spine  -2.0282 -4.2891 0.0199631
Spine1  -3.74106 -10.1078 1.71789
HEad  -51.6695 3.97469 10.2077
LeftShoulder1  -1.94126e-019 -3.10601e-018 -2.51263e-017
LeftArm  -11.088 23.2102 -74.4817
LeftForeArm  32.3513 -20.8326 -3.63473
LeftHand  -0.405136 -0.178338 8.52726
RightShoulder  -4.96962e-017 0 -2.36833e-017
RightArm  -63.3753 -43.9533 79.2431
RightForeArm  54.9481 5.97502 1.02195
RightHand  -0.110019 -3.85562 -7.12068
LeftUpLeg  -9.56256 17.1912 -6.17731
LeftLeg  18.3295 27.7368 6.93328
LeftFoot  -6.417 -0.195626 -3.32707
LeftToes  -3.49227 1.46665e-006 1.03344e-007
396
root  -6.7812 34.0685 -22.4059 6.38904 72.5314 1.04938
RightUpLeg  -19.8704 -8.65121 -7.16502
RightLeg  13.9673 17.7249 3.16811
RightFoot  12.9079 -0.391007 3.89698
RightToes  -36.0095 -0.187416 -0.291489
Spine  -1.95648 -4.5571 0.107587
Spine1  -3.657 -10.6347 2.00834
HEad  -51.5624 6.18832 9.81381
LeftShoulder1  -1.94126e-019 -3.10601e-018 -2.51263e-017
LeftArm  -10.366 23.3253 -75.0989
LeftForeArm  31.6716 -22.8839 -3.97765
LeftHand  -0.407713 -0.215727 8.52726
RightShoulder  -4.96962e-017 0 -2.36833e-017
RightArm  -62.3186 -43.9439 82.7647
RightForeArm  55.4266 6.80355 1.16712
RightHand  -0.12925 -1.94634 -4.06759
LeftUpLeg  -9.77045 18.0917 -6.35363
LeftLeg  18.6483 28.1316 7.18141
LeftFoot  -6.49416 -0.202844 -3.41265
LeftToes  -3.8887 1.46665e-006 1.03344e-007
397
root  -6.83058 34.049 -22.3783 6.68341 71.4454 1.34967
RightUpLeg  -20.2043 -6.61036 -7.88819
RightLeg  14.434 20.6379 3.83708
RightFoot  12.2507 -0.428783 4.41665
RightToes  -38.9847 -0.210423 -0.309315
Spine  -1.87173 -4.77982 0.207576
Spine1  -3.54855 -11.0416 2.2767
HEad  -51.4849 8.2192 9.65762
LeftShoulder1  -1.94126e-019 -3.10601e-018 -2.51263e-017
LeftArm  -8.86788 23.2715 -75.7499
LeftForeArm  31.0926 -24.6929 -4.28591
LeftHand  -0.393609 -0.278643 8.14823
RightShoulder  -4.96962e-017 0 -2.36833e-017
RightArm  -61.7648 -43.4882 85.0489
RightForeArm  56.4547 7.46905 1.28442
RightHand  -0.0698146 -0.197714 -1.54809
LeftUpLeg  -9.9478 19.0955 -6.46515
LeftLeg  18.9161 28.1075 7.30902
LeftFoot  -6.64491 -0.21162 -3.48247
LeftToes  -3.47538 1.46665e-006 1.03344e-007
398
root  -6.87579 34.0371 -22.3413 6.93457 70.6894 1.60901
RightUpLeg  -20.5563 -5.30764 -8.47872
RightLeg  15.0059 23.0238 4.48831
RightFoot  11.4864 -0.4339 4.7189
RightToes  -42.2063 -0.236344 -0.327243
Spine  -1.77828 -4.93838 0.325088
Spine1  -3.42215 -11.2837 2.523
HEad  -51.1588 9.82006 9.81782
LeftShoulder1  -1.94126e-019 -3.10601e-018 -2.51263e-017
LeftArm  -7.09631 22.884 -76.5867
LeftForeArm  30.9717 -25.9235 -4.5031
LeftHand  -0.340331 -0.497924 6.80884
RightShoulder  -4.96962e-017 0 -2.36833e-017
RightArm  -60.6589 -42.7326 86.1067
RightForeArm  57.2579 8.12345 1.3852
RightHand  -0.0180871 0.593513 -0.41568
LeftUpLeg  -10.0403 19.6491 -6.53729
LeftLeg  19.0302 28.2541 7.40068
LeftFoot  -6.64611 -0.212808 -3.50224
LeftToes  -3.76453 1.46665e-006 1.03344e-007
399
root  -6.8922 34.0329 -22.3055 7.258 70.2442 1.87616
RightUpLeg  -20.9143 -4.76188 -8.88629
RightLeg  15.6735 24.6948 5.08244
RightFoot  10.8917 -0.427404 4.87589
RightToes  -44.8396 -0.258252 -0.340796
Spine  -1.73337 -4.98288 0.455546
Spine1  -3.38257 -11.2756 2.73758
HEad  -50.6551 10.7095 10.408
LeftShoulder1  -1.94126e-019 -3.10601e-018 -2.51263e-017
LeftArm  -5.35854 22.2367 -77.6101
LeftForeArm  31.6079 -26.681 -4.64122
LeftHand  -0.333018 -0.692051 6.46814
RightShoulder  -4.96962e-017 0 -2.36833e-017
RightArm  -58.9069 -41.951 86.1014
RightForeArm  57.7099 8.85217 1.46942
RightHand  -0.0495125 0.557366 -1.03088
LeftUpLeg  -10.0815 19.5874 -6.64077
LeftLeg  19.0774 28.7122 7.53333
LeftFoot  -6.65082 -0.217286 -3.57664
LeftToes  -3.42775 1.46665e-006 1.03344e-007
400
root  -6.89809 34.0342 -22.2621 7.58942 70.0038 2.18451
RightUpLeg  -21.1683 -4.61491 -9.10301
RightLeg  16.4227 25.3565 5.54266
RightFoot  10.3658 -0.400996 4.80853
RightToes  -45.3245 -0.262353 -0.343182
Spine  -1.65919 -4.81891 0.556058
Spine1  -3.26163 -10.8382 2.84554
HEad  -50.3564 10.8289 11.0991
LeftShoulder1  -1.94126e-019 -3.10601e-018 -2.51263e-017
LeftArm  -3.64426 21.2219 -78.7996
LeftForeArm  32.5537 -27.1959 -4.74927
LeftHand  -0.350616 -0.581898 6.92129
RightShoulder  -4.96962e-017 0 -2.36833e-017
RightArm  -57.3488 -41.0429 85.4371
RightForeArm  58.1254 9.54461 1.51982
RightHand  -0.143488 0.246968 -2.99999
LeftUpLeg  -10.043 19.6117 -6.70331
LeftLeg  18.9693 28.8988 7.52241
LeftFoot  -6.5977 -0.215702 -3.57932
LeftToes  -3.53371 1.46665e-006 1.03344e-007
401
root  -6.88738 34.0415 -22.2064 8.11389 70.1329 2.62207
RightUpLeg  -21.162 -4.55671 -9.22691
RightLeg  16.5508 24.8416 5.49372
RightFoot  9.92303 -0.357702 4.51154
RightToes  -45.1293 -0.260699 -0.342226
Spine  -1.59472 -4.59793 0.641468
Spine1  -3.14779 -10.2714 2.88963
HEad  -50.4743 10.6773 12.0537
LeftShoulder1  -1.94126e-019 -3.10601e-018 -2.51263e-017
LeftArm  -2.06889 20.2926 -80.0149
LeftForeArm  32.957 -27.8173 -4.84072
LeftHand  -0.33293 -0.598383 6.55929
RightShoulder  -4.96962e-017 0 -2.36833e-017
RightArm  -55.0755 -40.0877 84.173
RightForeArm  57.8425 10.3782 1.5444
RightHand  -0.223736 -0.34972 -5.14736
LeftUpLeg  -10.036 19.4485 -6.7841
LeftLeg  18.7975 28.9375 7.44377
LeftFoot  -6.44612 -0.206626 -3.50642
LeftToes  -3.82073 1.46665e-006 1.03344e-007
402
root  -6.86234 34.0506 -22.1404 8.72351 70.7321 3.09277
RightUpLeg  -20.8203 -5.02181 -9.10254
RightLeg  15.9621 23.6924 5.00911
RightFoot  9.61889 -0.315363 4.14725
RightToes  -43.9747 -0.250988 -0.336456
Spine  -1.51134 -4.32971 0.704241
Spine1  -2.98601 -9.60583 2.87205
HEad  -51.1055 10.196 12.8833
LeftShoulder1  -1.94126e-019 -3.10601e-018 -2.51263e-017
LeftArm  -0.679648 19.3495 -81.2215
LeftForeArm  32.8182 -28.5208 -4.93325
LeftHand  -0.327921 -0.624735 6.43577
RightShoulder  -4.96962e-017 0 -2.36833e-017
RightArm  -52.0096 -39.0012 82.4952
RightForeArm  56.6415 11.2538 1.53028
RightHand  -0.26032 -1.02474 -6.84256
LeftUpLeg  -10.0834 18.9624 -6.82642
LeftLeg  18.6718 28.8318 7.35527
LeftFoot  -6.31705 -0.198118 -3.42745
LeftToes  -4.05692 1.46665e-006 1.03344e-007
403
root  -6.82446 34.0681 -22.0567 9.41302 71.6312 3.61011
RightUpLeg  -20.2492 -5.4919 -8.89466
RightLeg  15.044 21.8109 4.27866
RightFoot  9.40163 -0.270091 3.69633
RightToes  -40.8883 -0.225618 -0.320085
Spine  -1.44384 -4.01111 0.766052
Spine1  -2.8555 -8.84165 2.84714
HEad  -52.1379 9.58619 13.6684
LeftShoulder1  -1.94126e-019 -3.10601e-018 -2.51263e-017
LeftArm  0.479625 18.7876 -82.4359
LeftForeArm  32.1636 -29.4449 -5.00822
LeftHand  -0.332338 -0.609113 6.537
RightShoulder  -4.96962e-017 0 -2.36833e-017
RightArm  -49.087 -37.8372 80.4492
RightForeArm  55.7508 11.9697 1.49099
RightHand  -0.274037 -1.41697 -7.87507
LeftUpLeg  -10.1162 18.3362 -6.81108
LeftLeg  18.4683 28.5879 7.19636
LeftFoot  -6.05434 -0.180738 -3.25507
LeftToes  -4.63407 1.46665e-006 1.03344e-007
404
root  -6.76869 34.088 -21.9566 9.98346 72.6578 3.85345
RightUpLeg  -19.4849 -4.49357 -8.85161
RightLeg  13.5714 19.3392 3.31135
RightFoot  9.63965 -0.244212 3.32367
RightToes  -36.7088 -0.19274 -0.295786
Spine  -1.4098 -3.62477 0.843328
Spine1  -2.79198 -7.9625 2.86179
HEad  -53.5305 8.92935 14.3718
LeftShoulder1  -1.94126e-019 -3.10601e-018 -2.51263e-017
LeftArm  1.83476 18.5986 -83.4214
LeftForeArm  31.5317 -30.7871 -5.1405
LeftHand  -0.326851 -0.697679 6.34453
RightShoulder  -4.96962e-017 0 -2.36833e-017
RightArm  -46.0592 -36.4973 78.0803
RightForeArm  55.0508 12.3363 1.46446
RightHand  -0.278884 -1.6051 -8.39428
LeftUpLeg  -10.2261 17.6535 -6.69571
LeftLeg  18.1874 28.2688 6.98349
LeftFoot  -5.84222 -0.166617 -3.10276
LeftToes  -4.96657 1.46665e-006 1.03344e-007
405
root  -6.71029 34.1181 -21.8422 10.7472 73.9454 4.27344
RightUpLeg  -18.797 -2.94541 -9.01883
RightLeg  12.3829 16.2583 2.45859
RightFoot  9.91971 -0.208459 2.84824
RightToes  -35.7227 -0.185248 -0.289708
Spine  -1.40506 -3.21157 0.897422
Spine1  -2.78363 -7.04727 2.84255
HEad  -55.0832 8.10171 15.0084
LeftShoulder1  -1.94126e-019 -3.10601e-018 -2.51263e-017
LeftArm  3.17787 18.6807 -84.1759
LeftForeArm  31.2848 -32.1456 -5.32969
LeftHand  -0.314658 -0.913928 5.91984
RightShoulder  -4.96962e-017 0 -2.36833e-017
RightArm  -43.6725 -35.0107 75.638
RightForeArm  55.2056 12.2168 1.47379
RightHand  -0.286558 -1.60892 -8.64021
LeftUpLeg  -10.3195 16.6717 -6.56724
LeftLeg  17.825 28.0159 6.7479
LeftFoot  -5.45158 -0.144136 -2.86512
LeftToes  -5.43272 1.46665e-006 1.03344e-007
